# xmcd CD database file
#
# Track frame offsets:
#	150
#	13487
#	31905
#	49030
#	72267
#	98370
#	116612
#	134115
#	147322
#	167965
#
# Disc length: 2454 seconds
#
# Revision: 0
# Processed by: cddbd v1.4PL0 Copyright (c) Steve Scherf et al.
# Submitted via: CDex 1.50Beta7
#
DISCID=8f09940a
DTITLE=Bruce Henderson - Beyond The Pale
DYEAR=1999
DGENRE=Country
TTITLE0=August
TTITLE1=Speed Rack
TTITLE2=Bone Tired
TTITLE3=I Wanted Do
TTITLE4=I Never Lost An Arm
TTITLE5=Look At You Now
TTITLE6=Flatlands
TTITLE7=Wash It All Away
TTITLE8=Running Out Of Light
TTITLE9=Mexico
EXTD=YEAR: 1999
EXTT0=
EXTT1=
EXTT2=
EXTT3=
EXTT4=
EXTT5=
EXTT6=
EXTT7=
EXTT8=
EXTT9=
PLAYORDER=
